<?xml version="1.0" encoding="UTF-8"?>
<svg version="1.1" xmlns="http://www.w3.org/2000/svg" width="1113" height="1201">
<path d="M0 0 C0.71243866 -0.00067474 1.42487732 -0.00134949 2.15890503 -0.00204468 C56.19093915 0.07828752 109.52506052 16.79640759 151.75 50.9375 C152.39630371 51.45981201 153.04260742 51.98212402 153.70849609 52.52026367 C158.15469091 56.18512122 162.23371197 60.1223474 166.25 64.25 C167.054375 65.054375 167.85875 65.85875 168.6875 66.6875 C169.533125 67.533125 170.37875 68.37875 171.25 69.25 C172.05630859 69.98669922 172.05630859 69.98669922 172.87890625 70.73828125 C209.63171305 105.34269851 228.3770665 160.61897262 230.359375 209.97314453 C230.9692679 231.43756295 229.51072894 254.11445149 223.50008376 274.83522014 C221.0836475 283.2316908 220.82570703 291.29545811 220.86523914 299.95399857 C220.86130488 301.52220207 220.85605934 303.09040272 220.84963239 304.65859799 C220.83579498 308.95556848 220.84047591 313.25234656 220.84826078 317.54932484 C220.8534135 322.21789321 220.84117374 326.88642145 220.83114624 331.55497742 C220.81595893 339.74161422 220.81187868 347.92819825 220.81503928 356.11484766 C220.81973993 368.44618029 220.80699196 380.77745452 220.79096243 393.10877546 C220.76456876 413.77456302 220.75171615 434.44033708 220.74711609 455.10614014 C220.74085301 483.04913808 220.71594615 510.99206707 220.68786621 538.93505859 C220.62980281 606.1233603 220.59774988 673.31168245 220.5625 740.5 C220.459375 890.5675 220.35625 1040.635 220.25 1195.25 C-121.63 1195.25 -463.51 1195.25 -815.75 1195.25 C-815.770625 1108.74875 -815.79125 1022.2475 -815.8125 933.125 C-815.821604 905.87405762 -815.83070801 878.62311523 -815.84008789 850.54638672 C-815.84460449 817.11157227 -815.84460449 817.11157227 -815.84544373 801.42874146 C-815.84643102 789.83003644 -815.85071517 778.2313379 -815.85667343 766.6326347 C-815.86269361 754.74994306 -815.86482146 742.86725509 -815.86344495 730.98456199 C-815.86279924 724.56004483 -815.86370319 718.13553647 -815.86921513 711.71102118 C-815.8888883 687.53435301 -815.8068098 663.36753261 -815.30540466 639.19534302 C-815.28595919 638.20591622 -815.26651371 637.21648943 -815.24647898 636.19708 C-815.19054062 633.43348468 -815.12790565 630.6701391 -815.06241512 627.90675545 C-815.03787977 626.69309584 -815.03787977 626.69309584 -815.01284876 625.45491786 C-814.91246853 621.61490153 -814.66657856 617.98700539 -813.75 614.25 C-814.62658768 613.9735817 -815.50317535 613.69716339 -816.40632629 613.41236877 C-819.49712986 612.33790581 -822.3186449 611.10073766 -825.2487793 609.65209961 C-826.29974289 609.13493881 -827.35070648 608.61777802 -828.43351746 608.08494568 C-829.55244888 607.52968704 -830.67138031 606.97442841 -831.82421875 606.40234375 C-833.59750126 605.52868336 -835.3707847 604.65502486 -837.14412403 603.78147984 C-839.61586634 602.5627526 -842.08589054 601.34056506 -844.5559082 600.11834717 C-848.8907387 597.97385191 -853.22740932 595.83308901 -857.56538391 593.69496155 C-859.87239464 592.55743285 -862.17840523 591.41787312 -864.48332214 590.27610779 C-866.04558281 589.50509483 -866.04558281 589.50509483 -867.6394043 588.71850586 C-868.55618454 588.26487167 -869.47296478 587.81123749 -870.41752625 587.34385681 C-872.81984109 586.16199741 -872.81984109 586.16199741 -875.75 585.25 C-875.75 568.42 -875.75 551.59 -875.75 534.25 C-864.365 528.805 -864.365 528.805 -852.75 523.25 C-842.16477164 518.09123936 -842.16477164 518.09123936 -831.59106445 512.90893555 C-829.32673925 511.79644122 -827.06008887 510.68881618 -824.79296875 509.58203125 C-824.1098613 509.2446846 -823.42675385 508.90733795 -822.72294617 508.55976868 C-817.97731599 506.25 -817.97731599 506.25 -815.75 506.25 C-815.75114555 505.0542035 -815.75229111 503.858407 -815.75347137 502.62637424 C-815.7942983 454.60953072 -815.66996318 406.59303457 -815.55645666 358.57636201 C-815.52794644 346.50434387 -815.50020598 334.432324 -815.47249681 322.36030401 C-815.42309418 300.84558884 -815.37311482 279.33087505 -815.32275391 257.81616211 C-815.2739397 236.96167064 -815.22540884 216.10717853 -815.17724609 195.25268555 C-815.1727656 193.31269231 -815.1727656 193.31269231 -815.16819459 191.33350729 C-815.153206 184.84291026 -815.13822284 178.35231321 -815.12324238 171.86171615 C-814.99967009 118.32447547 -814.87515394 64.78723701 -814.75 11.25 C-791.80849655 11.35771689 -768.86702325 11.47055896 -745.9255743 11.58933926 C-735.2711125 11.64438642 -724.61664736 11.69781822 -713.9621582 11.74731445 C-704.66506496 11.79050905 -695.36799353 11.83686972 -686.07093436 11.88687855 C-681.15791746 11.91319915 -676.2449041 11.93803893 -671.3318615 11.95907402 C-579.95589907 12.35508514 -579.95589907 12.35508514 -542.75 42.25 C-541.90566406 42.92675781 -541.06132813 43.60351562 -540.19140625 44.30078125 C-531.84600747 51.39103205 -524.81771248 60.14843128 -518.75 69.25 C-518.73969254 68.53812027 -518.72938507 67.82624054 -518.71876526 67.0927887 C-518.62095102 60.39717174 -518.51845996 53.70164482 -518.41066074 47.00618076 C-518.3554012 43.5636426 -518.30197653 40.121096 -518.25268555 36.6784668 C-518.19599199 32.72435474 -518.13142505 28.77039056 -518.06640625 24.81640625 C-518.04969376 23.57476212 -518.03298126 22.33311798 -518.01576233 21.05384827 C-517.99581711 19.91274094 -517.97587189 18.77163361 -517.95532227 17.59594727 C-517.93200584 16.08037987 -517.93200584 16.08037987 -517.90821838 14.53419495 C-517.75 12.25 -517.75 12.25 -516.75 11.25 C-514.64383721 11.16318734 -512.53468866 11.14873162 -510.42677307 11.16098022 C-509.42395331 11.16476557 -509.42395331 11.16476557 -508.40087456 11.16862738 C-506.14293056 11.17840914 -503.88509791 11.19543708 -501.62719727 11.21240234 C-500.01408602 11.22090486 -498.40097246 11.22897679 -496.78785706 11.23664856 C-492.38544819 11.25893505 -487.98310155 11.28761162 -483.58073926 11.31760359 C-478.95642709 11.34827346 -474.33208661 11.373909 -469.70774841 11.40029907 C-461.91362034 11.44559496 -454.11952658 11.49503651 -446.32543945 11.546875 C-437.37880845 11.60632762 -428.43215765 11.65930161 -419.48546559 11.70864332 C-410.83843367 11.75649738 -402.19143753 11.80922117 -393.54444695 11.86400223 C-389.89008229 11.88706729 -386.23571387 11.90849778 -382.58133125 11.92850876 C-283.52000096 12.47999904 -283.52000096 12.47999904 -247.85546875 48.14453125 C-246.07468327 50.1254987 -244.40794502 52.16500853 -242.75 54.25 C-241.96882812 55.19488281 -241.18765625 56.13976563 -240.3828125 57.11328125 C-222.12613399 79.59516688 -215.50828123 105.90503108 -212.75 134.25 C-212.32086304 133.3681604 -212.32086304 133.3681604 -211.88305664 132.46850586 C-203.69277626 115.70042334 -195.33101492 99.96101895 -183.75 85.25 C-183.12738281 84.43402344 -182.50476563 83.61804688 -181.86328125 82.77734375 C-173.8612809 72.46029928 -164.92128281 62.46797417 -154.75 54.25 C-153.66376418 53.34019981 -152.57785887 52.43000494 -151.4921875 51.51953125 C-143.29290238 44.72236657 -134.8133319 38.79863652 -125.64941406 33.37744141 C-123.87773859 32.32582221 -122.12176906 31.2478671 -120.3671875 30.16796875 C-84.28248447 8.54273892 -41.63493404 0.03608251 0 0 Z M-409.75 95.25 C-409.75 128.58 -409.75 161.91 -409.75 196.25 C-369.19802243 196.5517213 -369.19802243 196.5517213 -334.75 177.25 C-325.35383263 166.54482458 -323.9726032 152.98401015 -324.75 139.25 C-326.45834189 126.59668802 -331.11527685 116.49628534 -340.99609375 108.25 C-361.35451161 93.46487951 -385.46630054 95.25 -409.75 95.25 Z M-706.75 99.25 C-706.75 132.91 -706.75 166.57 -706.75 201.25 C-663.17007951 203.72735587 -663.17007951 203.72735587 -625.53125 186.25390625 C-614.9746905 175.52009108 -613.47881635 161.98851908 -613.50561523 147.69189453 C-613.67174496 134.4862098 -616.53300783 122.66370746 -626.04296875 112.89453125 C-648.30732998 94.02822833 -679.84226623 99.25 -706.75 99.25 Z M-84.75 141.25 C-85.81347656 142.27480469 -85.81347656 142.27480469 -86.8984375 143.3203125 C-108.05730985 165.34281229 -115.37057172 195.82613292 -115.0234375 225.44140625 C-114.58640247 240.91720608 -110.66234829 254.49610376 -103.75 268.25 C-103.21503906 269.36761719 -102.68007813 270.48523438 -102.12890625 271.63671875 C-88.56719476 298.59753128 -64.89962041 316.47739154 -37 326.625 C-36.35184326 326.86379883 -35.70368652 327.10259766 -35.03588867 327.34863281 C-23.88411666 331.192441 -12.4411586 331.65811564 -0.75 331.625 C0.33616608 331.62418427 0.33616608 331.62418427 1.4442749 331.62335205 C31.66681925 331.51927133 57.98820862 321.88508402 80.25 301.25 C81.44689453 300.15751953 81.44689453 300.15751953 82.66796875 299.04296875 C97.58991554 284.80769562 107.33425064 267.96916454 113.25 248.25 C113.5696875 247.198125 113.889375 246.14625 114.21875 245.0625 C121.18626835 217.19242662 116.05232731 186.65478823 101.9296875 161.921875 C91.94217382 146.03476021 79.66708934 133.71077494 64.25 123.25 C63.67411133 122.85796387 63.09822266 122.46592773 62.50488281 122.06201172 C15.71495603 91.01151985 -46.3863263 103.96699317 -84.75 141.25 Z M-229.75 206.25 C-230.68798927 207.61318259 -231.62085544 208.98016354 -232.52807617 210.36401367 C-248.05716435 233.95030827 -273.72436544 248.58837064 -300.75 255.25 C-300.75 258.68561862 -300.24833922 259.29493507 -298.25 261.9609375 C-297.70093994 262.70013428 -297.15187988 263.43933105 -296.58618164 264.20092773 C-295.67727173 265.40084351 -295.67727173 265.40084351 -294.75 266.625 C-294.12279053 267.46426025 -293.49558105 268.30352051 -292.84936523 269.16821289 C-290.82558768 271.86933028 -288.78995265 274.56108108 -286.75 277.25 C-286.09273926 278.11641113 -285.43547852 278.98282227 -284.75830078 279.87548828 C-281.43397623 284.25115824 -278.09993281 288.61929639 -274.76171875 292.984375 C-270.84781301 298.10947973 -266.98323292 303.27042997 -263.125 308.4375 C-257.79036901 315.5745315 -252.37317554 322.64038294 -246.88720703 329.66162109 C-241.27622385 336.84348877 -235.7453723 344.08520447 -230.21679688 351.33056641 C-228.0680706 354.142365 -225.90933942 356.94634155 -223.75 359.75 C-219.90615399 364.7420078 -216.07556222 369.74396907 -212.25 374.75 C-208.36104593 379.83864743 -204.46836504 384.92431866 -200.5625 390 C-199.76328125 391.03898438 -198.9640625 392.07796875 -198.140625 393.1484375 C-196.52898527 395.23935572 -194.91487922 397.32809351 -193.296875 399.4140625 C-186.96505066 407.59764679 -180.87508511 415.89761121 -174.75 424.25 C-211.38 424.91 -248.01 425.57 -285.75 426.25 C-298.76960142 456.24158185 -311.78620584 486.23426343 -324.75 516.25 C-325.48844366 517.95963557 -326.22688769 519.66927098 -326.96533203 521.37890625 C-330.13897408 528.72673355 -333.31238412 536.07466083 -336.48461914 543.4230957 C-340.43253826 552.56831187 -344.38195286 561.71287323 -348.3359375 570.85546875 C-358.13115225 593.50889615 -367.87896696 616.18224764 -377.58276367 638.875 C-382.74268599 650.93609281 -387.93007809 662.9843316 -393.16796875 675.01171875 C-394.20023248 677.38658584 -395.23237976 679.76150356 -396.2644043 682.13647461 C-397.74554853 685.54491111 -399.22905129 688.95220223 -400.72085571 692.35598755 C-402.08064772 695.4585702 -403.43178139 698.56479147 -404.78125 701.671875 C-405.38872322 703.04740791 -405.38872322 703.04740791 -406.00846863 704.45072937 C-406.37241226 705.29295547 -406.7363559 706.13518158 -407.11132812 707.00292969 C-407.42976685 707.73114929 -407.74820557 708.4593689 -408.07629395 709.20965576 C-408.95902811 711.52493391 -408.95902811 711.52493391 -408.75 715.25 C-319.155 715.745 -319.155 715.745 -227.75 716.25 C-227.42 743.64 -227.09 771.03 -226.75 799.25 C-265.03 799.25 -303.31 799.25 -342.75 799.25 C-342.75 819.71 -342.75 840.17 -342.75 861.25 C-306.78 861.25 -270.81 861.25 -233.75 861.25 C-233.75 888.64 -233.75 916.03 -233.75 944.25 C-269.72 944.25 -305.69 944.25 -342.75 944.25 C-342.75 965.7 -342.75 987.15 -342.75 1009.25 C-304.47 1009.25 -266.19 1009.25 -226.75 1009.25 C-226.75 1034.33 -226.75 1059.41 -226.75 1085.25 C-212.18389541 1085.27016535 -197.61783 1085.29024653 -183.05172253 1085.30025387 C-175.21619722 1085.30572238 -167.38068308 1085.31260756 -159.54516602 1085.32543945 C-151.31526781 1085.3386569 -143.08537803 1085.34686681 -134.85546875 1085.34765625 C-134.18453359 1085.34772061 -133.51359843 1085.34778497 -132.82233191 1085.34785128 C-108.78692297 1085.34648972 -84.7736597 1084.99486826 -60.75 1084.25 C-63.0129815 1076.42275245 -63.0129815 1076.42275245 -65.96484375 1068.8359375 C-66.39289307 1067.85375244 -66.82094238 1066.87156738 -67.26196289 1065.85961914 C-67.73239014 1064.79219482 -68.20281738 1063.72477051 -68.6875 1062.625 C-69.77064561 1060.13252168 -70.85183564 1057.63929477 -71.9296875 1055.14453125 C-72.22490799 1054.46182663 -72.52012848 1053.77912201 -72.82429504 1053.07572937 C-77.0837539 1043.19544359 -81.18573706 1033.24870985 -85.3125 1023.3125 C-91.95339638 1007.33426065 -98.63325919 991.37345819 -105.375 975.4375 C-111.53000207 960.88742571 -117.65782766 946.32649706 -123.75 931.75 C-129.88572241 917.07016744 -136.05425202 902.40459836 -142.25 887.75 C-148.82096717 872.20790807 -155.35731961 856.65180476 -161.86474609 841.08300781 C-167.6296993 827.29253331 -173.42947997 813.51710806 -179.25 799.75 C-186.40703143 782.82160064 -193.52545923 765.87741497 -200.61328125 748.91992188 C-201.14143181 747.65651474 -201.14143181 747.65651474 -201.68025208 746.36758423 C-202.31519534 744.84847064 -202.94990989 743.32926141 -203.58427429 741.80990601 C-207.28720925 732.94856162 -211.02308905 724.1014135 -214.75 715.25 C-179.44 715.25 -144.13 715.25 -107.75 715.25 C-106.76 718.22 -105.77 721.19 -104.75 724.25 C-103.93498779 726.45817917 -103.10373476 728.66045357 -102.25390625 730.85546875 C-101.7849292 732.06823486 -101.31595215 733.28100098 -100.83276367 734.53051758 C-100.3262015 735.83291989 -99.81944076 737.135245 -99.3125 738.4375 C-99.04756744 739.11992767 -98.78263489 739.80235535 -98.50967407 740.50546265 C-94.40914703 751.0665948 -90.23563237 761.59713022 -86.01245117 772.10986328 C-81.26430274 783.93412704 -76.57015812 795.77962834 -71.87765312 807.62606907 C-58.00914843 842.63761397 -44.12214796 877.64036692 -29.875 912.5 C-29.49137299 913.43946472 -29.10774597 914.37892944 -28.7124939 915.34686279 C-27.62514616 918.00798859 -26.53567084 920.66823154 -25.4453125 923.328125 C-25.12944687 924.10106903 -24.81358124 924.87401306 -24.48814392 925.67037964 C-22.3367872 930.90708084 -20.07396949 936.08767514 -17.75 941.25 C-14.39940855 939.57470428 -13.75303816 935.7730965 -12.44042969 932.43017578 C-12.11149719 931.60842865 -11.7825647 930.78668152 -11.44366455 929.94003296 C-10.34651632 927.19435606 -9.25924241 924.44487601 -8.171875 921.6953125 C-7.40175036 919.76252456 -6.63100811 917.82998261 -5.85968018 915.89767456 C-3.81386635 910.76780441 -1.77631383 905.63469141 0.25952148 900.50085449 C2.27508695 895.42187547 4.29788568 890.3457811 6.3203125 885.26953125 C9.49270006 877.30475095 12.66115949 869.33841943 15.82714844 861.37109375 C19.61151682 851.84901277 23.41004653 842.33268243 27.21875 832.8203125 C34.74970221 814.00787655 42.26624733 795.18971161 49.76711655 776.36525917 C51.86287147 771.10586705 53.96000451 765.8470326 56.06005859 760.58935547 C58.13457512 755.39549681 60.20578204 750.20032994 62.27465057 745.00421906 C63.05331401 743.05018796 63.83314407 741.09662131 64.61420441 739.14354706 C65.69552129 736.43907273 66.77257378 733.73293699 67.84863281 731.02636719 C68.16542496 730.23690201 68.4822171 729.44743683 68.80860901 728.63404846 C69.1024498 727.89249008 69.39629059 727.1509317 69.69903564 726.38690186 C69.95185932 725.75299908 70.204683 725.1190963 70.465168 724.46598434 C71.53654943 721.44092359 72.36836983 718.33570559 73.25 715.25 C98 715.25 122.75 715.25 148.25 715.25 C148.25 672.68 148.25 630.11 148.25 586.25 C141.52379858 588.94048057 135.05669216 591.68990614 128.58984375 594.890625 C127.69512863 595.3296666 126.80041351 595.76870819 125.87858582 596.22105408 C123.96932128 597.15842338 122.06085581 598.09742177 120.15313721 599.03793335 C116.11189312 601.03027691 112.06677986 603.01470687 108.02191162 604.99967957 C105.97991896 606.0018785 103.93812988 607.00449237 101.89654541 608.00752258 C93.40318357 612.17958739 84.89344111 616.31694183 76.375 620.4375 C73.73159953 621.71709431 71.08840962 622.99712297 68.4453125 624.27734375 C67.78702957 624.59617523 67.12874664 624.91500671 66.45051575 625.24349976 C51.36983474 632.55046355 36.31212895 639.9048967 21.25 647.25 C20.41472778 647.65732361 19.57945557 648.06464722 18.71887207 648.48431396 C3.27812016 656.0142929 -12.161664 663.54625683 -27.59997559 671.08123779 C-37.81085787 676.06483183 -48.02304647 681.04573918 -58.23632812 686.02441406 C-60.79056248 687.26977697 -63.34452514 688.51569565 -65.8984375 689.76171875 C-70.02991325 691.77722801 -74.16233741 693.79078009 -78.29547119 695.80288696 C-79.83529703 696.55286973 -81.37481286 697.30348937 -82.91400146 698.05477905 C-85.02255451 699.08383268 -87.13221903 700.11057118 -89.2421875 701.13671875 C-89.86198486 701.43984985 -90.48178223 701.74298096 -91.12036133 702.05529785 C-93.64487235 703.28043345 -96.08310735 704.36103578 -98.75 705.25 C-98.42 686.44 -98.09 667.63 -97.75 648.25 C-84.16534281 641.67444785 -70.57862983 635.13537896 -56.875 628.8125 C-46.67110072 624.10306282 -36.53220545 619.27263129 -26.42376709 614.36300659 C-17.65779007 610.10772771 -8.85017709 605.95291786 0 601.875 C13.90888832 595.46128696 27.67875154 588.77498318 41.44866943 582.06974792 C55.98488173 574.99499582 70.57897206 568.04085496 85.25 561.25 C85.25 560.59 85.25 559.93 85.25 559.25 C71.63761112 552.38504575 57.98012993 545.63468974 44.2109375 539.08984375 C40.06289301 537.11796969 35.92331739 535.12953093 31.7890625 533.12890625 C20.44248724 527.63865467 9.07183339 522.21590205 -2.375 516.9375 C-12.72802149 512.16254291 -23.00261602 507.24645438 -33.25 502.25 C-45.9085154 496.07835691 -58.63175678 490.07397938 -71.421875 484.1796875 C-78.06240197 481.11715217 -84.6663598 477.97940566 -91.24560547 474.78735352 C-94.83485227 472.91088997 -94.83485227 472.91088997 -98.75 472.25 C-98.75 454.1 -98.75 435.95 -98.75 417.25 C-106.67 413.29 -114.59 409.33 -122.75 405.25 C-134.23292796 398.00100078 -145.20461728 390.74315501 -155.23632812 381.62402344 C-156.84647373 380.16242675 -158.47713506 378.72591976 -160.109375 377.2890625 C-167.05136896 371.1086669 -173.04302767 364.61100846 -178.75 357.25 C-179.39066406 356.486875 -180.03132812 355.72375 -180.69140625 354.9375 C-199.47912567 332.46814667 -211.90392065 305.37157062 -220.0625 277.4375 C-220.29300049 276.65117187 -220.52350098 275.86484375 -220.76098633 275.0546875 C-225.12114634 259.40102451 -226.49228407 243.90483337 -227.4375 227.75 C-227.5674506 225.65489135 -227.6983041 223.5598385 -227.83007812 221.46484375 C-228.14710731 216.39381079 -228.45199317 211.32218491 -228.75 206.25 C-229.08 206.25 -229.41 206.25 -229.75 206.25 Z M-518.75 229.25 C-519.73713447 230.6651078 -520.71959675 232.08366257 -521.68066406 233.51660156 C-539.68832654 260.14331616 -567.96215251 277.30919611 -599.23918152 283.94880676 C-605.60302677 285.15856083 -611.93785396 285.83668197 -618.39453125 286.32421875 C-619.51313034 286.40913071 -620.63172943 286.49404266 -621.78422546 286.58152771 C-635.19510139 287.52187057 -648.61597803 287.661889 -662.05480957 287.79260254 C-666.76679196 287.83930122 -671.47864658 287.8951759 -676.19047546 287.95530701 C-678.67480771 287.98658346 -681.15919815 288.01366476 -683.64363098 288.03553772 C-691.38102606 288.12738875 -699.04267302 288.56447831 -706.75 289.25 C-706.9269409 301.39569866 -707.09267185 313.54153171 -707.25 325.6875 C-707.26781588 327.06221151 -707.26781588 327.06221151 -707.28599167 328.46469498 C-707.66927194 358.28960894 -707.84115601 388.11017105 -707.8125 417.9375 C-707.81164398 418.83503368 -707.81078796 419.73256737 -707.80990601 420.65729904 C-707.79875308 431.52155476 -707.77905031 442.38577745 -707.75 453.25 C-705.20772284 452.14577491 -702.66626875 451.039718 -700.12524414 449.93261719 C-699.41242531 449.62323212 -698.69960648 449.31384705 -697.96518707 448.99508667 C-691.93330492 446.36430538 -686.04681043 443.49524834 -680.1875 440.5 C-671.27700534 435.99351839 -662.32078321 431.6048366 -653.29077148 427.34277344 C-644.3677135 423.11584088 -635.59078003 418.67039002 -626.75 414.25 C-626.75 433.39 -626.75 452.53 -626.75 472.25 C-629.72 473.24 -629.72 473.24 -632.75 474.25 C-634.74735551 475.14976879 -636.72866372 476.08573954 -638.6953125 477.05078125 C-640.41234375 477.88802734 -640.41234375 477.88802734 -642.1640625 478.7421875 C-642.76766602 479.03834961 -643.37126953 479.33451172 -643.99316406 479.63964844 C-647.24363935 481.23368017 -650.50045449 482.81462192 -653.7578125 484.39453125 C-654.42596985 484.71870026 -655.0941272 485.04286926 -655.78253174 485.37686157 C-662.40220521 488.58024889 -669.0707818 491.6726564 -675.75 494.75 C-685.29800682 499.15372803 -694.79223626 503.65666336 -704.25 508.25 C-714.85743953 513.4016978 -725.52225902 518.41599154 -736.23046875 523.35546875 C-745.22033906 527.51315793 -754.14491069 531.79645122 -763.0526123 536.12619019 C-769.83777326 539.42283681 -776.63664548 542.68266223 -783.484375 545.84765625 C-784.11819092 546.14062592 -784.75200684 546.43359558 -785.4050293 546.73544312 C-788.42668915 548.130089 -791.45103818 549.51839222 -794.47851562 550.90039062 C-800.72676171 553.770203 -806.80611306 556.79036767 -812.75 560.25 C-808.36790504 563.70886427 -803.61708391 565.80929993 -798.5625 568.125 C-797.46607178 568.62966797 -796.36964355 569.13433594 -795.23999023 569.65429688 C-780.87149321 576.21886347 -766.30465857 582.33903589 -751.77685547 588.53979492 C-737.91699559 594.45607549 -724.09569522 600.43820327 -710.35546875 606.62841797 C-706.87675594 608.19299073 -703.39471834 609.74990091 -699.91178894 611.30505371 C-679.38143989 620.4746137 -658.95746629 629.83850147 -638.64048767 639.47113037 C-633.06228254 642.11177861 -627.4599867 644.69720639 -621.85205078 647.27416992 C-616.13816943 649.90483416 -610.44050157 652.56917731 -604.75 655.25 C-603.85800903 655.66928772 -603.85800903 655.66928772 -602.94799805 656.0970459 C-582.84761812 665.56085206 -564.98851534 675.92205562 -548.75 691.25 C-547.39972858 692.400421 -546.04567526 693.54642098 -544.6875 694.6875 C-520.05670411 716.25795652 -504.92427886 747.13653611 -493.75 777.25 C-491.20439662 774.97902119 -489.94137882 772.86561373 -488.59960938 769.74243164 C-488.19993958 768.82184967 -487.80026978 767.9012677 -487.38848877 766.95278931 C-486.96122498 765.9487204 -486.53396118 764.94465149 -486.09375 763.91015625 C-485.41200714 762.33178482 -485.41200714 762.33178482 -484.7164917 760.7215271 C-483.22093957 757.25470346 -481.73549689 753.78364265 -480.25 750.3125 C-479.20868654 747.89366928 -478.16668723 745.47513371 -477.12402344 743.05688477 C-475.00413162 738.13747721 -472.88795672 733.21650255 -470.77539062 728.29394531 C-468.08332916 722.02273819 -465.38088518 715.7560894 -462.671875 709.4921875 C-462.27938065 708.58456161 -461.88688629 707.67693573 -461.48249817 706.74180603 C-460.70608497 704.94638649 -459.92966197 703.15097119 -459.15322876 701.3555603 C-457.2130968 696.86695471 -455.27655647 692.37680045 -453.33984375 687.88671875 C-450.29382387 680.82532409 -447.24418117 673.76550809 -444.19140625 666.70703125 C-434.90722604 645.23626988 -425.67370973 623.74436439 -416.47064209 602.2387085 C-409.09641602 585.01065927 -401.66364649 567.80904055 -394.1875 550.625 C-383.92233209 527.02614974 -373.80991693 503.36406063 -363.75476074 479.67504883 C-360.82977134 472.78549213 -357.89358263 465.90082776 -354.94921875 459.01953125 C-348.43912853 443.79466412 -341.97977518 428.5550423 -335.8125 413.1875 C-335.07640503 411.35832031 -335.07640503 411.35832031 -334.32543945 409.4921875 C-333.46206655 407.32074466 -332.61465236 405.14284192 -331.78833008 402.95703125 C-330.75 400.25 -330.75 400.25 -329.7956543 398.24609375 C-328.8914532 396.35276807 -328.8914532 396.35276807 -328.75 393.25 C-330.19977042 389.65578572 -332.26991002 386.57453788 -334.4375 383.375 C-335.04037842 382.4459082 -335.64325684 381.51681641 -336.2644043 380.55957031 C-338.07426552 377.77692954 -339.91131506 375.01364249 -341.75 372.25 C-342.67265174 370.82770835 -343.59224729 369.40342623 -344.5078125 367.9765625 C-346.24408269 365.27081142 -347.99038123 362.57208352 -349.74609375 359.87890625 C-353.40620845 354.25342843 -357.01250406 348.59362187 -360.625 342.9375 C-365.98276511 334.55361887 -371.37363576 326.19290882 -376.80932617 317.859375 C-381.2264906 311.07818063 -385.58386346 304.25960421 -389.9375 297.4375 C-394.48057883 290.32760598 -399.02977461 283.22301195 -403.6875 276.1875 C-404.09444092 275.56834717 -404.50138184 274.94919434 -404.9206543 274.3112793 C-405.83626721 272.93876888 -406.78854868 271.59079946 -407.75 270.25 C-408.08 270.25 -408.41 270.25 -408.75 270.25 C-409.9970451 300.71155461 -409.87215914 331.18157169 -409.82202661 361.66216767 C-409.80949342 369.42386326 -409.80422128 377.18556236 -409.79882812 384.94726562 C-409.78923157 398.71485819 -409.76917788 412.48241008 -409.75 426.25 C-445.06 425.92 -480.37 425.59 -516.75 425.25 C-517.245 328.23 -517.245 328.23 -517.75 229.25 C-518.08 229.25 -518.41 229.25 -518.75 229.25 Z M142.7421875 393.77734375 C133.19014037 400.83430398 123.62457244 407.46566073 113.25 413.25 C112.52635254 413.65895508 111.80270508 414.06791016 111.05712891 414.48925781 C79.5123192 432.17135582 45.27496248 444.25744131 9.86328125 451.3359375 C8.99364746 451.51157227 8.12401367 451.68720703 7.22802734 451.86816406 C5.58338331 452.19627102 3.93662522 452.51402259 2.28759766 452.81933594 C-1.6979993 453.60335917 -4.85361685 454.28447242 -7.75 457.25 C-7.75 457.91 -7.75 458.57 -7.75 459.25 C-1.9063949 462.18477474 3.93896403 465.11603565 9.78540039 468.04516602 C11.76266779 469.0362715 13.7395721 470.02810175 15.71606445 471.02075195 C27.23687528 476.80613235 38.79368937 482.49885823 50.43540955 488.03710938 C60.99609317 493.0667451 71.4900235 498.23068049 81.98532104 503.39501953 C87.77350999 506.24239597 93.56448991 509.08408421 99.35546875 511.92578125 C101.04208366 512.75343491 101.04208366 512.75343491 102.76277161 513.59780884 C111.13157898 517.70350616 119.50044061 521.80901754 127.88787842 525.8765564 C129.62777248 526.72101134 131.36592062 527.56906063 133.10400391 528.41723633 C134.12026855 528.90861084 135.1365332 529.39998535 136.18359375 529.90625 C137.02978271 530.31681641 137.87597168 530.72738281 138.74780273 531.15039062 C141.531929 532.37389582 144.3533226 533.32862941 147.25 534.25 C148.84923374 486.59198379 148.66004836 438.91038463 147.25 391.25 C145.44495424 391.25 144.14200642 392.7332618 142.7421875 393.77734375 Z M-722.75 659.25 C-722.85424384 681.49151113 -722.69231689 703.69267697 -722.00949097 725.92462158 C-720.901648 762.23449812 -720.26704505 798.55349364 -719.6875 834.875 C-719.66644699 836.19138206 -719.64539398 837.50776413 -719.623703 838.86403656 C-718.78257842 891.65718132 -718.19248963 944.4521151 -717.75 997.25 C-713.51587785 998.72522818 -709.9706763 999.54010222 -705.48046875 999.69921875 C-704.27390625 999.74328857 -703.06734375 999.7873584 -701.82421875 999.83276367 C-700.54160156 999.86732666 -699.25898437 999.90188965 -697.9375 999.9375 C-696.9479834 999.96694199 -696.9479834 999.96694199 -695.93847656 999.99697876 C-682.84769994 1000.37804318 -669.81658062 1000.16646847 -656.75 999.25 C-655.45578125 999.16105469 -654.1615625 999.07210938 -652.828125 998.98046875 C-630.33974552 996.57854089 -608.44040086 986.06892551 -593.7421875 968.7734375 C-586.40196454 959.47582174 -580.37359652 949.57302613 -574.78027344 939.15527344 C-573.85720411 937.44825139 -572.9032101 935.75803684 -571.9453125 934.0703125 C-552.2562221 897.68632517 -547.52790305 850.95547188 -558.875 811.25 C-562.08289545 800.57956231 -566.05073435 790.3463079 -570.75 780.25 C-571.0814502 779.53344238 -571.41290039 778.81688477 -571.75439453 778.07861328 C-579.48481025 761.54904337 -589.52547724 745.61582195 -603.7578125 733.8984375 C-605.98483541 732.05568521 -608.0736938 730.09646235 -610.1875 728.125 C-626.70991053 713.26490516 -645.61994322 700.48584265 -664.75 689.25 C-665.4409375 688.84023926 -666.131875 688.43047852 -666.84375 688.00830078 C-678.42541297 681.16391477 -690.24517463 674.81124386 -702.1875 668.625 C-702.86729919 668.27139404 -703.54709839 667.91778809 -704.24749756 667.5534668 C-706.20273374 666.53826052 -708.1612353 665.52968647 -710.12109375 664.5234375 C-711.25474365 663.93997559 -712.38839355 663.35651367 -713.55639648 662.75537109 C-716.58193502 661.32922091 -719.57225798 660.2779825 -722.75 659.25 Z M-442.75 790.25 C-468.20077592 838.14116116 -468.20077592 838.14116116 -482.109375 889.1953125 C-485.34988328 941.45548311 -501.79687434 993.28052421 -537.75 1032.25 C-538.28463867 1032.82991699 -538.81927734 1033.40983398 -539.37011719 1034.00732422 C-560.28226346 1056.39554933 -586.98593711 1072.88696579 -615.75 1083.25 C-615.75 1083.58 -615.75 1083.91 -615.75 1084.25 C-557.78599721 1086.32014296 -499.75095785 1085.25 -441.75 1085.25 C-441.75 987.9 -441.75 890.55 -441.75 790.25 C-442.08 790.25 -442.41 790.25 -442.75 790.25 Z M146.25 796.25 C145.77393311 797.37752686 145.29786621 798.50505371 144.80737305 799.66674805 C131.82991536 830.40283203 118.85245768 861.13891602 105.875 891.875 C105.48313004 892.80311493 105.09126007 893.73122986 104.68751526 894.68746948 C103.8958031 896.56257348 103.10408557 898.4376752 102.31236267 900.31277466 C100.33384797 904.99866498 98.35542646 909.68459461 96.37719727 914.37060547 C92.80701726 922.82736061 89.23616174 931.2838272 85.66183472 939.73883057 C77.12081026 959.94262249 68.60195687 980.15521406 60.14505005 1000.39437866 C55.84407845 1010.68714868 51.52767839 1020.97308571 47.1796875 1031.24609375 C46.75608948 1032.24730255 46.33249146 1033.24851135 45.89605713 1034.28005981 C43.86441726 1039.08109647 41.83056289 1043.88117493 39.79296875 1048.6796875 C39.04681041 1050.4413789 38.30071377 1052.20309642 37.5546875 1053.96484375 C37.23756805 1054.70931259 36.92044861 1055.45378143 36.59371948 1056.22080994 C32.66599629 1065.50803809 28.99719165 1074.88202087 25.25 1084.25 C65.51 1084.25 105.77 1084.25 147.25 1084.25 C147.25 989.21 147.25 894.17 147.25 796.25 C146.92 796.25 146.59 796.25 146.25 796.25 Z " fill="#FEFEFE" transform="translate(880.75,3.75)"/>
<path d="M0 0 C10.77431361 9.12161654 13.99368845 18.40473324 15.18209839 32.0463562 C15.50820023 36.48679693 15.63080574 40.92034451 15.71484375 45.37109375 C15.73567017 46.33015121 15.75649658 47.28920868 15.7779541 48.27732849 C15.84337527 51.36970933 15.90255925 54.46216629 15.9609375 57.5546875 C15.98211639 58.60889893 16.00329529 59.66311035 16.02511597 60.74926758 C16.40049058 79.5020099 16.48217244 98.23556097 16.3984375 116.9921875 C1.5484375 116.9921875 -13.3015625 116.9921875 -28.6015625 116.9921875 C-28.72273437 111.8153125 -28.84390625 106.6384375 -28.96875 101.3046875 C-29.04979272 98.01429183 -29.13136647 94.72392636 -29.21484375 91.43359375 C-29.34713089 86.21739381 -29.47750852 81.00119749 -29.59619141 75.78466797 C-29.69205888 71.57638709 -29.79675921 67.36840824 -29.907444 63.16049194 C-29.94803007 61.55951515 -29.98549708 59.95845598 -30.01971054 58.35733032 C-30.06838367 56.1051069 -30.12840163 53.8534386 -30.19091797 51.6015625 C-30.23755081 49.6829541 -30.23755081 49.6829541 -30.28512573 47.72558594 C-30.85625202 40.98729819 -32.24165879 35.34864063 -36.6015625 29.9921875 C-42.42544424 25.65262252 -48.64471467 26.42182238 -55.6015625 26.9921875 C-60.61153861 27.95431094 -64.23742078 30.78995982 -67.28872681 34.79777527 C-72.2531969 43.0959149 -70.94239194 54.79308926 -71.015625 64.16015625 C-71.03437656 65.69144182 -71.0539528 67.22271748 -71.0743103 68.75398254 C-71.125217 72.74702058 -71.16506199 76.74009197 -71.20245361 80.73327637 C-71.24986597 85.54437041 -71.31128277 90.3553044 -71.37030029 95.1662674 C-71.45800583 102.44150799 -71.52813155 109.71672585 -71.6015625 116.9921875 C-86.4515625 116.9921875 -101.3015625 116.9921875 -116.6015625 116.9921875 C-116.6015625 75.7421875 -116.6015625 34.4921875 -116.6015625 -8.0078125 C-102.0815625 -8.0078125 -87.5615625 -8.0078125 -72.6015625 -8.0078125 C-70.79040294 -6.19665294 -71.21956802 -3.39503023 -71.0390625 -0.9453125 C-70.95527344 0.15941406 -70.87148438 1.26414062 -70.78515625 2.40234375 C-70.72457031 3.25699219 -70.66398438 4.11164062 -70.6015625 4.9921875 C-69.72757813 4.10466797 -69.72757813 4.10466797 -68.8359375 3.19921875 C-50.79327816 -14.19095448 -19.8837333 -15.34570408 0 0 Z " fill="#FFFFFF" transform="translate(697.6015625,535.0078125)"/>
<path d="M0 0 C14.52 0 29.04 0 44 0 C44 41.25 44 82.5 44 125 C29.15 125 14.3 125 -1 125 C-1.02254711 108.84967769 -1.04097922 92.69936874 -1.05181217 76.54903507 C-1.05697511 69.05066936 -1.06401776 61.55231409 -1.07543945 54.05395508 C-1.08538637 47.52069496 -1.09185344 40.98744241 -1.09408849 34.45417494 C-1.09539559 30.99278193 -1.09848136 27.53141058 -1.10573006 24.07002449 C-1.11374407 20.21212473 -1.11399113 16.35424643 -1.11352539 12.49633789 C-1.11712067 11.34044159 -1.12071594 10.18454529 -1.12442017 8.99362183 C-1.1230455 7.94889206 -1.12167084 6.90416229 -1.12025452 5.82777405 C-1.12117631 4.9142772 -1.1220981 4.00078035 -1.12304783 3.05960178 C-1 1 -1 1 0 0 Z " fill="#FFFFFF" transform="translate(332,527)"/>
<path d="M0 0 C5.03600386 4.36453668 9.75830867 9.01098192 10.30859375 15.81640625 C10.87421958 31.11261427 10.87421958 31.11261427 5.64453125 37.37109375 C-0.12952406 43.09028867 -5.17001148 45.2826998 -13.375 45.3125 C-20.97153766 45.15711628 -26.07266902 44.03729884 -31.75 38.875 C-36.56033156 33.62436349 -39.17409175 28.09342422 -39.4375 20.9375 C-39.07482649 13.14001949 -36.48111346 7.60858121 -31 2 C-21.39736639 -5.51510456 -10.34321626 -6.2099622 0 0 Z " fill="#FFFFFF" transform="translate(368,459)"/>
</svg>
