<?xml version="1.0" standalone="no"?>
<!DOCTYPE svg PUBLIC "-//W3C//DTD SVG 20010904//EN"
 "http://www.w3.org/TR/2001/REC-SVG-20010904/DTD/svg10.dtd">
<svg version="1.0" xmlns="http://www.w3.org/2000/svg"
 width="835.000000pt" height="901.000000pt" viewBox="0 0 835.000000 901.000000"
 preserveAspectRatio="xMidYMid meet">

<g transform="translate(0.000000,901.000000) scale(0.100000,-0.100000)"
fill="#000000" stroke="none">
<path d="M6416 8969 c-221 -20 -443 -83 -638 -182 -313 -159 -548 -393 -706
-705 l-67 -134 -7 84 c-21 277 -146 512 -353 669 -57 43 -186 109 -260 132
-156 51 -143 50 -922 54 l-733 4 -2 -228 -3 -228 -41 60 c-107 155 -259 267
-448 330 -177 60 -166 59 -983 63 l-753 3 -2 -1328 c-2 -730 -3 -1501 -3
-1713 0 -212 -1 -448 -2 -526 l-3 -141 -225 -109 -225 -109 0 -183 0 -183 231
-112 232 -112 -8 -365 c-4 -201 -6 -1006 -6 -1790 1 -784 1 -1599 1 -1812 l0
-388 3885 0 3885 0 0 3416 0 3416 21 81 c30 117 49 275 49 407 0 795 -536
1440 -1327 1599 -188 38 -381 48 -587 30z m-2565 -714 c143 -30 247 -102 291
-202 45 -101 43 -246 -5 -341 -44 -88 -152 -161 -282 -188 -33 -7 -120 -13
-192 -14 l-133 0 0 380 0 380 124 0 c73 0 155 -6 197 -15z m-2071 -44 c165
-58 238 -183 228 -388 -7 -150 -71 -254 -187 -306 -81 -36 -157 -46 -343 -47
l-178 0 0 386 0 386 208 -4 c185 -3 214 -6 272 -27z m5035 -38 c313 -71 568
-315 645 -617 56 -220 22 -459 -91 -648 -53 -88 -201 -240 -281 -286 -173
-102 -313 -137 -517 -130 -117 5 -149 10 -231 37 -239 78 -409 225 -515 446
-56 116 -74 185 -82 315 -19 334 145 632 437 798 75 42 224 91 312 102 91 11
232 4 323 -17z m-1897 -1113 c96 -518 414 -948 866 -1169 l86 -42 0 -202 0
-202 695 -330 c382 -182 695 -333 695 -336 0 -3 -313 -153 -695 -334 l-695
-329 0 -212 0 -212 203 98 c111 54 513 250 892 435 380 185 705 343 723 351
l32 14 0 -490 0 -490 -279 0 -280 0 -337 -847 c-185 -467 -340 -851 -344 -856
-3 -4 -159 378 -345 848 l-339 855 -398 0 -398 0 9 -22 c5 -13 266 -634 580
-1381 314 -746 571 -1359 571 -1362 0 -3 -283 -5 -630 -5 l-630 0 0 285 0 285
-435 0 -435 0 0 245 0 245 410 0 410 0 0 310 0 310 -410 0 -410 0 0 235 0 235
435 0 435 0 0 310 0 310 -685 0 c-377 0 -685 3 -685 8 0 4 210 494 467 1089
l468 1083 418 2 419 3 -481 627 c-265 345 -481 631 -481 636 0 5 15 12 33 16
175 35 394 180 487 325 l35 54 6 -169 c4 -93 12 -194 17 -224z m-1788 -1270
l400 0 2 594 3 595 300 -465 c165 -256 304 -473 308 -483 7 -13 -150 -387
-601 -1432 -335 -778 -616 -1426 -622 -1441 -13 -27 -13 -26 -40 50 -107 305
-298 549 -577 738 -98 66 -994 481 -1468 679 -82 35 -193 83 -245 108 l-94 46
144 68 c80 38 396 188 703 333 l557 264 0 212 0 213 -252 -123 c-139 -68 -274
-134 -300 -146 -26 -13 -49 -22 -51 -19 -2 2 -2 281 1 621 l4 616 347 5 c376
5 421 10 594 68 173 57 333 175 436 319 l46 65 3 -743 2 -742 400 0z m4590
-280 c0 -297 -3 -540 -7 -540 -9 0 -1156 560 -1165 568 -4 4 -1 15 6 24 9 13
44 22 121 34 286 42 717 221 948 394 44 33 84 60 89 60 4 0 8 -243 8 -540z
m-6327 -1572 c241 -122 475 -276 633 -415 127 -113 155 -143 213 -233 88 -135
161 -313 198 -482 25 -116 25 -380 0 -496 -51 -231 -165 -463 -307 -625 -81
-92 -210 -159 -366 -192 -82 -17 -381 -23 -489 -10 l-52 7 -7 696 c-4 384 -12
855 -17 1047 -19 686 -21 805 -14 805 4 0 97 -46 208 -102z m1907 -1983 l0
-1115 -677 0 -678 1 75 28 c375 140 684 439 831 806 72 178 139 477 139 617 0
83 -5 71 281 736 10 23 21 42 24 42 3 0 5 -502 5 -1115z m4417 -1112 c-2 -2
-211 -2 -465 -1 l-460 3 461 1095 462 1095 3 -1094 c1 -602 1 -1096 -1 -1098z"/>
<path d="M4853 5051 c-57 -20 -69 -27 -125 -80 l-38 -35 0 57 0 57 -165 0
-165 0 0 -465 0 -465 164 0 165 0 3 288 c3 278 4 288 26 323 31 51 65 70 131
76 70 6 116 -17 145 -73 20 -36 21 -60 24 -326 l4 -288 165 0 165 0 -4 343
c-5 384 -9 410 -74 486 -46 53 -95 85 -164 105 -71 21 -191 19 -257 -3z"/>
<path d="M2616 5588 c-80 -17 -146 -97 -146 -178 0 -51 32 -113 75 -146 30
-22 50 -29 99 -32 73 -4 115 15 160 71 28 35 31 46 31 106 0 59 -4 72 -28 104
-51 67 -114 91 -191 75z"/>
<path d="M2490 4585 l0 -465 165 0 165 0 0 465 0 465 -165 0 -165 0 0 -465z"/>
</g>
</svg>
